<?xml version="1.0" encoding="utf-8"?>
<!-- Generator: Adobe Illustrator 26.4.1, SVG Export Plug-In . SVG Version: 6.00 Build 0)  -->
<svg version="1.1" id="Capa_1" xmlns="http://www.w3.org/2000/svg" xmlns:xlink="http://www.w3.org/1999/xlink" x="0px" y="0px"
	 viewBox="0 0 2000 1000" style="enable-background:new 0 0 2000 1000;" xml:space="preserve">
<style type="text/css">
	.st0{fill:#B9BC15;}
	.st1{clip-path:url(#SVGID_00000002377601237021677050000004294670796517914770_);}
	.st2{fill:#B2B214;}
</style>
<g>
	<rect x="0" class="st0" width="2000" height="1000"/>
	<g>
		<defs>
			<rect id="SVGID_1_" x="0" width="2000" height="1000"/>
		</defs>
		<clipPath id="SVGID_00000093857628585795802040000004108321035226528432_">
			<use xlink:href="#SVGID_1_"  style="overflow:visible;"/>
		</clipPath>
		<g style="clip-path:url(#SVGID_00000093857628585795802040000004108321035226528432_);">
			<path class="st2" d="M1082.7,1164.9c-36.2-13.4-75.5-15.8-113.1-20.2c-151.9-18-301.8-59.3-456.3-48.2
				c-91.1,6.6-181.6,21.1-272.6,28.6c-40.4,3.3-62.7-24.5-77.8-60.2c-15.4-36.6-27.5-86.2-79.6-77.4C17.2,998.5-1.3,1053.6-8,1112.9
				c-1,8.6-2.6,17.1-3.9,25.6c-7.4-5-15.7-9.1-22-15.3c-97.9-96.4-89.3-229.6,45.4-286.8c204.1-86.7,316.8-249.6,429.2-422
				c45.4-69.7,108.2-128.1,198.9-84.8c93.6,44.7,76.1,137.3,58.9,213.2c-46.2,203.3,11.1,405.4,141.3,460.7
				c117.4,49.9,245.3,57.1,367.2,88.3c58.3,14.9,113.6,36.2,161,73.1h229.4c-67.2-36.4-133.9-73.8-202.7-107
				c-111.6-53.9-234.2-69.3-353.8-96.2c-181.7-40.9-264.4-225-228.1-427.6c47.6-266.1,237-409.8,429.7-557.5
				c168.8-129.4,319.2-272.2,316.2-508c-1.9-148.6-66.8-272-169.5-375.3c-154.7-155.7-135-326.9-56.2-509.2
				c78.4-181.4,136.3-366.5,64.6-567.2c-28.5-79.8-93.2-119-155-164.5c-107.6-79.2-110.6-155.3,7.2-217.8
				c144.5-76.6,210.5-190.9,239.8-347.1c36.6-194.9,199.7-256.8,390.2-165.1c133.9,64.4,242.3,171.5,382.5,224.8
				c86.2,32.8,171.7,32.4,256.3,0v-127.1c-251.9,120.5-428-35.3-606.4-180.7c-108.3-88.2-226-127.5-367.9-96.3
				c-47.8,10.5-133.9,25.7-134.4-52.9c-0.5-78.1,73.8-72.6,131.9-81.7h-307.2c8.1,133.1,68.1,254.3,89.6,384.4
				c29.9,180.6-62.5,301.9-193.6,404.4c-44.6,34.9-90.1,69.5-138.8,98.2c-51.8,30.6-119.6,65-155.8-6
				c-37.3-73.2,36.7-105.5,88-133.2c99-53.5,222.6-72.4,255-209.4c32.7-138-17.9-264.6-44.2-395c-9.6-47.4-15.8-95.5-23.1-143.3H994
				c16.4,49.9,33.1,99.6,48.9,149.7c41.6,132.5,97.6,268.2-12.5,392.9c-73.7,83.5-181.8,131.9-247.1,224.8
				c-89.5,127.2-182.7,248.3-334,308.6c-35.1,14-85,28.1-82.2,74.4c3,50.2,53.2,71,93.1,92.8c122.7,67.3,262.1,46.8,392.6,73.5
				c66.8,13.6,136.3,31.2,160.7,105.2c18.6,56.4-16.9,102.7-59.3,131.4c-83.7,56.7-170.7,109.4-260,156.6
				c-216.1,114.1-407.8,253.4-515.4,482c-28.8,61.2-51.9,128.7-13.2,194.5c21.2,36.1,60.7,49.7,102.4,44.2
				c76.8-10.2,138.8-54.1,202-94.4c131.2-83.7,259.1-184.1,419.3-193.7c171-10.2,298,109.1,434.4,190.4
				c115.6,68.9,185.9,175.8,164,316.4c-40.4,259.1-201.6,436.8-411.9,575.2c-66.5,43.8-143.4,84.1-223.6,41.6
				c-73.9-39.2-63.5-117.3-49.2-182.8c30.7-140-21.1-223.3-142-299.7c-155.3-98-158.3-180.3-31.9-291
				c91.6-80.3,198.2-164,324.9-141.7c194.3,34.2,295.3,185.5,297.9,395.9c0.3,27.1-5.6,63.3,29.8,75.3c11.2,3.8,33-6.8,42.3-17.5
				c37.1-42.6,51.7-95.1,55.4-150.6c10.5-154.9-97.6-224.5-211.4-284.9c-89.1-47.3-169.9-128.3-281.2-110
				c-147,24.3-247.5,142.6-378.2,202.2c-113.9,52-130.2,123.8-51.1,221.5c35.7,44,79.9,83.4,126.4,116
				C764.7-266.1,786-177.5,667-15.5c-61.6,83.9-141.5,159.2-183.5,251.8C387.4,448.7,254.4,605.2,26.1,687.9
				c-243.7,88.3-313.4,312.5-169.5,477H1082.7z M375.9-904.5c-31.9,31.5-86.1,76-121.2,30.1c-50.5-66,16.5-119.7,57.3-163.7
				c173.7-187.2,394.5-314.1,599.9-460.8c81.2-58,156.7-127.9,180.7-230.1c22-93.7-55-124.1-119.3-159.3
				c-19.2-10.5-51.8-13.7-48.4-39.6c1.2-9.4,41.6-19.1,64.2-19.4c123.2-1.9,202,72.4,202,221.9c-10.9,143.9-124.4,259.7-257.7,351.1
				C731.2-1235.9,549.6-1075.8,375.9-904.5z M718.9-1079.4c-6.2,1.9-12.8,2.4-19.3,3.5c2.3-6.9,3.2-14.6,7.1-20.4
				c82.4-123.9,218.2-182.6,332-267.1c170.1-126.3,271.7-368.4,199.2-511.3c-54.3-107-146-151.4-279.9-151.2
				c-67.5-0.8-146.2,27.2-226,50c-33.9,9.7-79.4,30-98.4-9.5c-18.5-38.5,24.2-61.6,54.4-77.7c235.6-125.5,596.7-92.2,670.9,214
				c44.1,182.1-38.4,334.5-148.9,469.8C1082.3-1223.2,907.6-1138.3,718.9-1079.4z"/>
			<path class="st2" d="M866.3-3191.7h-88.5c55.4,67.2,98.4,140,109.6,229.9c13.9,111.9-10.3,215.2-91.6,291.4
				c-144.4,135.3-235.7,318.5-397.4,436.6c-121,88.4-251.2,65.4-373.7,8.6c-145.6-67.6-283.5-55.1-423.3,9.4c-8.7,4-18.8,5-28.3,7.3
				c2.5-9.8,3.7-20.2,7.8-29.3c48.7-108.2,239.6-150.7,385.4-88.1c146.1,62.7,292.4,144.4,446.3,17.4
				c105-86.6,166.3-207.8,247.8-313c62-80,148.1-147.3,152.6-258.2c6-147.4-73-243.1-190.3-312H33.7
				c55.6,19.2,111.1,39.2,167.6,55.2c107.1,30.5,213.5-17.1,320.5-7.5c104.5,9.4,181.7,65,231.9,155.5c30.8,55.6,29.9,113.2-7.6,168
				c-14.7,21.5-33.8,34.8-58.8,31.1c-29.8-4.5-42-29.4-48.6-55.9c-44.2-179.7-95.8-217.5-274.1-168.1
				c-116.4,32.3-202.7-28.5-296.5-66.7c-203.9-83-405.4,47-406.3,266c-0.2,52.8-3.7,105.8-8.6,158.4c-3.4,36.7-10.6,78.8-60.9,71.7
				c-46-6.5-62.9-49-61.5-87.4c7.8-212.3,48.5-459,297.7-520.3h-185.1C-485.1-3029-540.1-2842.3-520-2635.8
				c7.5,77.2,50.1,149.4,141.2,136c98.7-14.5,85.7-108.8,96.1-179.7c18.9-128.4,0.6-273.4,145.8-345.4
				c95.9-47.5,187.4-14.9,265.2,44.8c67.1,51.4,131.7,70.6,218.7,61.5c192.2-20.2,261.1,75.3,214.5,277.6
				c-42.6,184.7-192.5,343.6-324.7,340.7c-98.7-2.1-171.2-71.6-257.4-106.1c-168-67.2-303.4,5.5-430.8,106.7
				c-193.6,153.7-400.8,277.5-654.4,299.6c-23.5,2.1-51.5-1.4-56.9-27.5c-6-29.1,23.1-37.3,44.6-44.9
				c118.2-41.8,242.1-68,352.6-131.2c165.4-94.6,183.9-238.9,156-411.5c-32.9-203.6,13.3-397.2,115.5-576.7h-97.3
				c-78.4,195.6-66.8,403-76.6,607.8c-5.7,119.2-31.4,233.8-118.1,322.7c-179.2,184-448.7,176.2-647.8-13
				c-27.1-25.7-62.7-77.7-102.4-44.4c-40.2,33.6-0.1,76.5,24.4,110.3c16.7,23.1,33.2,46.6,52.5,67.4
				c102.6,110.5,194.4,239.9,372.9,222.6c108.4-10.5,193-77.6,286.5-123c202.4-98.2,406.5,28.5,406.5,254.1
				c0,278.9-285.8,475.7-573.8,415.4c-199.3-41.7-375.9-144-573.7-185.4c-111.4-23.3-245.5,52.8-273.2,164.1
				c-23.2,93.2,41.7,172.2,161,204.4c169.3,45.7,327.2,109.9,438.7,258.4c117.2,156.1,159.1,161.4,324.8,46.1
				c137.7-95.8,279.1-139.4,445.1-78.8c151.8,55.4,214.8,14.7,216.3-146.6c1.9-207,97.3-340,286.2-413.4
				c162.6-63.1,247.7-216.5,206.9-382.6c-21.8-88.6-92.8-123.3-175.7-104.4c-74,16.9-46.9,83.1-36.5,131.6
				c28.2,131.7,18.3,249.3-102.6,334.7c-76.5,54.1-148.8,112.4-185.1,203.6c-27.6,69.5-57.1,138.7-109.5,193.5
				c-115.8,121.1-272.2,100.7-417.5,115.4c-309.6,31.2-565.6-115.4-822.3-256c-50-27.4-109.8-66.6-69.7-132.6
				c38-62.6,104.1-41.6,156.2-10.4c173.4,104.1,341.8,213.7,546.9,253.7c175.3,34.2,352.7-9,434.1-120
				c156.5-213.6,197.1-455.3,188.7-712.6c-5.2-157.8,85.5-229.1,235.3-178.9c239.8,80.4,458.5,74.8,639.7-125.7
				c93.8-103.8,167.2-226.5,281.9-311c100.3-73.9,147-168.3,127.5-294.9C941.4-3015.9,901.5-3102.8,866.3-3191.7z"/>
			<path class="st2" d="M2080.3,921.1c-211.3-187.9-323-378.8-148.5-634.9c94.2-138.4,305.1-185.6,512.5-115.6
				c24.3,8.2,49.3,14.1,74.3,20.4V-41.5c-101.8,18.7-204,35.6-305.2,57.4c-266,57.1-469.7,252.7-491.1,512.1
				c-17.6,213.2,123.8,351.5,292.8,461.6c47.1,30.7,115.2,61.5,87.3,136.3c-8.7,23.3-24.8,34.5-43.9,39H2203
				C2227.1,1054.6,2152.2,985.1,2080.3,921.1z"/>
			<path class="st2" d="M1171.7,815.4c208.6,72,381.2,211.2,578.9,302.7c35.2,16.3,70.9,31.6,106.6,46.8h147.3
				c-7.6-1.1-15.1-2.5-22.2-3.9c-177.9-35-318.9-131.8-443.1-261.5c-199.3-208.1-156-664.6,79.3-829.1
				c130.8-91.4,257.9-188.3,382.6-287.8c36.8-29.3,70.9-88.3,27.8-124.5c-44.7-37.6-63.5,28.6-90.1,55.9
				c-48.5,49.7-92.8,106.2-148.8,145.6c-216.2,152.2-411,318.2-464.5,596.9c-9.4,49.2-30.9,100.3-93.5,83.7
				c-48.5-12.9-51.3-62.3-42.5-104.9c47.9-232.9,202.7-389.6,378.8-531.7c100.4-81.1,222.5-143.3,270.6-274.3
				c39.6-108-16.7-213.2-21.7-320.4c-4.1-88.7,12.9-186.7-44.9-261.6c-43.1-55.9-118.4-87.4-159.5-144.2
				c-110.2-152.5-72.6-324.4-31.2-487.3c45.6-179.3,86.3-354.2,43.3-541c-40.1-174.4-37.7-349.3,42.5-515.4
				c14-28.9,35.7-55.8,72.1-48.1c37.6,8,42.5,41.3,42.3,74.1c-0.7,134.8-41.1,266.1-27.2,403c13,128.5,98.8,223.1,196.7,199.9
				c170-40.4,357.7,48.2,418.3,210.8c60.1,161.4,26.5,337.7,63.1,504c17.2,78.4,28.8,159,85.8,219.9v-255.9
				c-31.6-86-39.2-177.4-41.1-267.2c-5.8-282.8-133.8-465.2-407-551.1c-174.9-54.9-234.3-172.5-223.4-409.4
				c3.9-84.2,31.6-183.6-81.9-207c-104.9-21.7-133,75.8-164,150.4c-43.8,105.4-110.4,192.6-187.9,275.6
				c-78.6,84.2,4.3,145.5,47.8,207c144.4,203.8,122.9,424.8,28.2,628.1c-109.3,234.8-62.2,409.3,107.6,589.8
				c171.9,182.8,193.4,469.3,63.4,644.3c-101.5,136.6-259.8,214.8-378.2,335.3c-141,143.6-306.9,274.9-332.7,492
				C930.9,709.9,1049,773,1171.7,815.4z"/>
			<path class="st2" d="M846.6-1740.6c-2.2-11.2-23.1-24-37.3-26.8c-119.1-23.4-243.2-19.3-358-68.4c-40.9-17.5-61.5,12.5-64.8,49.2
				c-15.9,178.2-94.9,305.4-271.7,366.5c-103.3,35.7-206,87.6-230.2,206.9c-17,83.5-10.5,172-12.1,258.3
				c-2,110.2-59.4,162.7-165.6,142.2c-94-18.1-185.9-55-280.2-61c-202.7-13-326.2,124.4-439.4,265.2c-53.6,66.7-44.4,141.7,23.5,200
				c44.9,38.5,92.9,24.4,135.5-6c50.9-36.3,93.9-88.8,149.6-112.5c289.4-122.8,570.4-64,828.6,82.6
				c229.9,130.6,280,308.4,175.3,483.7C202.9,201.6,36.3,248.4-126.9,303.1c-218.2,73.2-409.5,175.5-468.6,427.2
				c-31.8,135.8-100.2,250.1-251.8,273.7c-137,21.4-223.8-69.5-309.6-159.1c-72.6-75.7-139.9-161.1-242.5-198.7
				c-179.2-65.7-312.2,24-438.6,131.3V934c37.5-54.8,72-112,128.5-150.9c167.3-115.5,310.3-88.1,436.6,75.8
				c85.6,111.2,177.6,217.5,287.6,306h411.2c-60.9-256.3,53.8-454.2,228.5-626.8c111.6-110.2,266.3-150.8,401.5-223
				C235,219.4,386.2,96.4,426.2-117.8c29.4-157.1-82-233.5-187.8-312.8c-76.5-57.4-174.3-97.3-191.1-208.8
				c-2.7-17.7,7-37.3,10.9-56.1c8.8,4.2,20,6.4,26,13.1c13.9,15.4,24.6,33.6,37.8,49.6c83.5,101.2,190.3,176,291.1,257.6
				C551-263.5,546.7-128.6,436.7,65.3c-144.1,253.8-383.8,380-622.9,511c-175.8,96.3-339.5,367.8-242.8,588.6h136.4
				c-123-256.1,13.8-525.6,266.5-611.5c111.2-37.8,233.6-56.7,309.8-162.7C372.3,267.3,420.1,118.4,526.7,5.6
				c50.4-53.4,104.4-110.4,95.6-192.4c-11.5-108.3-106.4-152.1-176.9-213.4C315.1-513.4,156.5-607.2,101.9-781.1
				c-73.7-234.3,51.1-413.3,198.6-576.8c139.4-154.6,336.3-221.1,508.8-324.8C830.3-1695.4,851.9-1713.7,846.6-1740.6z
				 M138.3-1231.2C67-1102.2,41.7-961.6,20.2-817.7C-5.3-647.1-131.9-567.5-300-636.6c-222.7-91.5-408-66.2-573.5,108.9
				c-18.7,19.8-57.7,48.7-73.9,20c-28-49.6,15.5-91.6,46.4-127.4c158-182.6,344-212.6,565.2-117.8c84.9,36.4,203.4,87.1,255.3-52.9
				c26.5-71.6,23.8-154,34.3-231.5c4.5-92.7-1.3-190,73.4-261.5c31.7-30.3,74.3-59.7,115.1-33.3
				C182.5-1306.3,155.9-1263.1,138.3-1231.2z"/>
			<path class="st2" d="M203.7-128.7c-29.2-28.2-67.3,47.6-97.7,80.2C40.4,21.6-35.5,62.2-130.1,23
				c-88.7-36.7-174.8-58.4-268.8-22.1c-193.4,74.7-359.2,209-571.5,246.6c-181.5,32.1-389.9-67.7-446.4-243.1
				c-44.3-137.5-8.2-284.3-42.7-423.6c-55.1-222.8-158.7-407.9-378.6-503.8v103.5c166.3,81.6,241.8,232.9,283.6,401
				c56.5,227.5,89.1,460.9,15.3,689.8c-45.3,140.4-164.4,213.3-298.9,259.2v89.2c309-230.6,552.5-154.9,781.4,109
				c120.9,139.3,246.8,139.8,314.6-31.1c101.5-255.7,258.8-441.6,530.5-519.4c130.1-37.3,276.4-39.7,374.9-153.1
				C202.1-19.5,250.1-84,203.7-128.7z M-287,128.3c-178.6,93.9-317.4,244-490.1,345.7c-61.6,36.3-129.6,54.2-210.3,54.6
				c-116.2-4.5-228.1-48.9-330.6-117.7c-21.9-14.7-52.3-36.8-34.5-70.4c23.4-44.4,66.9-39.5,103.9-24.2
				c275.7,113.2,492.3-17.4,706.8-165.9c72.3-50,147.3-100.5,243.4-92.5c20.4,1.7,38.9,11,38.7,27.4
				C-259.7,100-273.4,121.1-287,128.3z"/>
			<path class="st2" d="M7.5-383.6c-208.4-88.9-428.6-56.8-645.2-40c-44.1,3.4-90.4,44.2-81.8,97.4c5.7,35.2,53.4,29.8,81.3,23
				c156.9-38,314.8-61.7,475.7-36.2c47.7,7.6,121.1,1.9,121,69.9c-0.2,70.7-69.8,65.4-119.7,60.9c-147.7-13.1-293.2-29.2-439.4,21.4
				c-306.5,106.2-486.7,27.8-562.8-287.5C-1253.3-847-1481.1-1041-1838-1110v59.4c2.4,0.4,4.8,0.9,7.2,1.6
				c300.9,95.9,541,451.3,556.3,816.4c4.9,116.7,26.8,233.4,139.3,297.8c128.6,73.6,249.2,18,357.7-51
				c201.1-127.8,396.3-248.9,652.3-144.3c69.4,28.3,158.9-4.5,196.4-85.5C103.4-285.6,71.9-356.1,7.5-383.6z"/>
			<path class="st2" d="M-543.8-1928.9c-54.8-79.9-169.8-89.7-269.9-18.7c-81.6,57.9-149.8,138.1-259.9,145.3
				c-172.6,11.2-282.9-95.3-392.1-205.4c-148.5-149.7-191.9-158.6-372.3-66.3v145.8c171.2-84.9,298.4,24,434.8,103.6
				c242.2,141.3,398.3,124.5,634.7-58c33-25.5,77.9-61.1,111.8-22.5c41.1,46.8,6,100.1-30.4,135.8
				c-163.2,160.5-361.4,164.6-570.4,124.7c-140.3-26.8-252.3-121.3-389.1-154.7c-70.2-17.2-131.6,6.7-191.4,38.1v133.9
				c66.8-54.4,141.2-98.7,228.8-71.8c139.9,42.9,272.9,108.9,413.6,148c195,54.2,394.1,95.8,580.5-36.6
				C-510.4-1662.2-474.3-1827.5-543.8-1928.9z"/>
			<path class="st2" d="M2518.6-908.3c-27.9-30.4-57.3-59.7-79.2-93.9c-114.9-180.2-118.2-388.2-138.6-591.1
				c-18.6-184.6-173-312.8-351.8-286.3c-152,22.6-264.3,173.5-270.7,354.5c-4.1,115.5-28.9,232.9,44.4,336.9
				c39.4,56,122.9,57.6,157.5,120c50.2,90.6,19,189.8,25.4,285c8.4,124.9,42.6,236.2,151.8,309.7c161,108.2,268.6,93.8,461.3-62.9
				V-908.3z M2334.4-468.1c-117.6,31.8-208.2-20.3-277.8-111.7c-61.9-81.3-72.4-178.4-73.2-277c-0.4-111.6,32.5-233.7-71.9-317.9
				c-59.4-47.9-144.9-58.2-171.6-150.9c-54.1-188.2,46.8-415.8,212.7-461.5c129.9-35.8,250.1,69.2,292.2,250.1
				c43.9,188.6,23.5,391.7,124.3,567.1c48.6,84.5,115.4,161,118.7,264.6C2491.5-592.2,2453.1-500.2,2334.4-468.1z"/>
			<path class="st2" d="M-948.8-3191.7h-183.5c-35.2,66.2-74.3,130.8-102.5,199.9c-48,117.5-11.6,211.5,93.9,281.4
				c40.3,26.7,89.8,50.1,90.8,108.3c0.2,14.5-16.4,38.5-29.8,42.4c-62.1,18.1-112.7-13.1-154-53.6c-167-163.8-194.2-366.6-80-570.5
				c1.4-2.5,2.6-5.2,3.7-7.9h-82.7c-82.9,177.9-42.8,465.8,90.5,608.7c65.7,70.6,143.5,127.4,245.6,84.4
				c87.6-36.8,92.3-122.5,88.7-202.2C-975.7-2865.2-986.8-3029.4-948.8-3191.7z"/>
			<path class="st2" d="M2518.6-2509.1c-139,72-254.2,10.5-371.8-70.6c-48.7-33.6-113.9-134.2-173.7-34.6
				c-46.6,77.5-21.4,176.1,43.1,250.3c84.4,96.9,211.4,122.4,316.8,184.3c71.5,42,130.7,96.7,185.6,156.8V-2509.1z"/>
			<path class="st2" d="M-718.9-3191.7h-85.6c-4.6,13.2-9.3,26.4-12.7,39.9c-47.1,186.5-8.7,378.8-38.3,566.7
				c-20.2,128.3-118.1,250-234.9,270.5c-105.9,18.6-196-25.7-253.5-113.2c-152.5-231.9-225.7-485-186.2-763.8h-90.3
				c-3.1,15.7-6.9,31.5-5.8,46.9c20.6,278.3,104.3,543.2,249.9,774.1c117.9,187,332,243.2,504.1,33.9
				c113-137.5,126.9-300.5,128.3-468.8C-742.6-2934.7-760.2-3065.5-718.9-3191.7z"/>
			<path class="st2" d="M1758.6,920.2c-217.1-266-201.2-554.6,38.6-798.9c199.3-203,463.3-249.4,721.3-311.8V-378
				C2256-293.2,2051.4-110.1,1826,37.3c-381,249.2-388,719.5-16.6,972.1c12.2,8.3,26.1,14.2,39.2,21.3c-8.5-11-16.8-22.2-25.6-33
				C1801.6,971.8,1779.8,946.2,1758.6,920.2z"/>
			<path class="st2" d="M2099.2,757.4c131,104.2,248.3,221,229.3,407.5h118.9c-27.7-195-138.5-337.3-291.9-455.9
				c-78.4-60.7-130-142.8-100.4-247.2c29.7-104.6,109.7-146.8,215-141.6c95.8,4.8,168.7,64.1,248.6,106.7V322.1
				c-43.9-16-88.6-30.2-130.4-50.5c-143.8-69.8-305.2-33.1-378.6,89C1931.5,490.4,1975,658.6,2099.2,757.4z"/>
			<path class="st2" d="M-1669.7-371.4c-21.2-112.9-65.1-218.2-168.3-283.7v153.1c87.1,115,97.6,251.5,99.7,389.6
				c1.4,95.4-26.6,179.4-99.7,242.9V363c64.8-24.5,108.2-74.3,138-134.2C-1603.3,34-1631.8-170-1669.7-371.4z"/>
			<path class="st2" d="M-1602.3-2682.8c-40.6-169.7-139.4-326-124-508.9h-65c-17.4,126.6,39.3,237.9,78,352.6
				c65.1,193.2,22.9,361-124.7,487.1v131.6C-1678.4-2254.9-1557.7-2496.6-1602.3-2682.8z"/>
			<path class="st2" d="M-1690.4,1164.9c27.8-114.4,88.4-201,221.2-195.1c116.1,5.1,166.6,115.4,240.7,186c3,2.9,5.9,6,8.6,9.2h77.4
				c-34-42.4-67.2-85.5-103.5-125.9c-75-83.3-134.3-193.8-261.5-203.1c-169.2-12.3-241.5,160.3-281.3,328.9H-1690.4z"/>
			<path class="st2" d="M2518.6-3103.4c-54.2,36.9-102.4,83.6-168.9,100.5c-141.6,36-243.8-36-341.2-122.6
				c-25.6-22.7-52.1-44.4-78.4-66.3h-226.3c103.9,16.1,190.1,73.4,273.1,137.5c164.1,126.7,329.2,246.1,541.8,117.8V-3103.4z"/>
			<path class="st2" d="M2128.1-3191.7c42.1,43.8,87.1,84.5,151.3,89.3c70.5,5.2,112.7-40.6,151.8-89.3H2128.1z"/>
			<path class="st2" d="M-1795.3-2785.3c-7.1-54.1-13-110.3-42.8-158.5v427.1c0.5-0.5,1-1.1,1.4-1.7
				C-1787.1-2601.7-1783.2-2693.4-1795.3-2785.3z"/>
			<path class="st2" d="M-1360.5,1164.9c-25-39.7-57.6-72.9-106.1-74.7c-50.1-1.9-79.4,31.6-96.9,74.7H-1360.5z"/>
			<path class="st2" d="M1126.8-417.1c-10.2,81.7-3.7,192-117.4,236.1c-73,28.4-56.6-40.9-62.2-78.4c-15-100.4-74.2-169.7-152.7-227
				c-28.9-21.1-76.1-37.1-67.9-78.9c11.2-57.4,65.9-82.1,115.5-100.1C1017.8-729.2,1126.8-639.2,1126.8-417.1z"/>
			<path class="st2" d="M-50.7-1785c3.4,88.9-22.6,159.3-118.2,184.4c-59.1,15.5-70.2-26.8-69.3-67.6c2.7-119.2,9-238.4,17-357.4
				c2-29.2,10.9-65.5,48.8-67.4c54.3-2.7,67.2,45.7,81.8,83.6C-63.1-1937.6-49.8-1862.3-50.7-1785z"/>
			<path class="st2" d="M202.2-2413c-99.6-62.1-224.8-120.8-325-208.2c-89.2-77.8-62-265.7,27.6-302.7
				c86.3-35.7,141.4,33.2,200.7,76.8c68.5,50.4,139.1,70.3,225.3,55.8c120.7-20.3,152,22.6,114.1,157.1
				C413.8-2523.5,348.9-2440.3,202.2-2413z"/>
			<path class="st2" d="M376.6,994.1c-90.3-5.1-101.4-51.9-66.3-119.3c48-92.2,98-183.4,149.6-273.5c15.6-27.2,37-61.2,73.7-52.7
				c43.1,10,58.4,54.1,56,90.4c-6.3,95.8,1.1,196.9-62.6,279.6C488.9,968.1,434.5,988.5,376.6,994.1z"/>
			<path class="st2" d="M2098.7-887.1c2.9-135.6,24.7-275.1-82.5-387.3c-47.6-49.8-132.2-54.7-160.6-125.1
				c-36.2-89.6,28.3-210.4,133-227.3c115.5-18.7,125.3,88.9,147,162.5c55.8,188.8,36.8,395.5,134.8,574.7
				c35.1,64.2,85.6,121.4,97.3,196.2c6.7,42.9-6.2,84.9-52.4,99.2c-82.5,25.5-132.8-23.3-173.4-85.7
				C2100.7-743.1,2094.9-814.2,2098.7-887.1z"/>
		</g>
	</g>
</g>
</svg>
